HIERARCHY
ROOT Hips
{
  OFFSET 0 0 0
  CHANNELS 6 Xposition Yposition Zposition Zrotation Yrotation Xrotation
  JOINT LeftThigh
  {
    OFFSET 8.759831 0 -6.164326
    CHANNELS 3 Zrotation Yrotation Xrotation
    JOINT LeftLeg
    {
      OFFSET 0 0 -44.123596
      CHANNELS 3 Zrotation Yrotation Xrotation
      JOINT LeftFoot
      {
        OFFSET 0 0 -40.997191
        CHANNELS 3 Zrotation Yrotation Xrotation
        End Site
        {
          OFFSET 0 -13.883989 -5.217556
        }
      }
    }
  }
  JOINT RightThigh
  {
    OFFSET -8.759831 0 -6.164326
    CHANNELS 3 Zrotation Yrotation Xrotation
    JOINT RightLeg
    {
      OFFSET 0 0 -44.123596
      CHANNELS 3 Zrotation Yrotation Xrotation
      JOINT RightFoot
      {
        OFFSET 0 0 -40.997191
        CHANNELS 3 Zrotation Yrotation Xrotation
        End Site
        {
          OFFSET 0 -13.883989 -5.217556
        }
      }
    }
  }
  JOINT SpineLow
  {
    OFFSET 0 0 4.91573
    CHANNELS 3 Zrotation Yrotation Xrotation
    JOINT SpineMid
    {
      OFFSET 0 0 13.436657
      CHANNELS 3 Zrotation Yrotation Xrotation
      JOINT Chest
      {
        OFFSET 0 0 13.436657
        CHANNELS 3 Zrotation Yrotation Xrotation
        JOINT LeftShoulder
        {
          OFFSET 7.865169 1.474719 9.831461
          CHANNELS 3 Zrotation Yrotation Xrotation
          JOINT LeftArm
          {
            OFFSET 9.536517 0 4.424157
            CHANNELS 3 Zrotation Yrotation Xrotation
            JOINT LeftForearm
            {
              OFFSET 0 0 26.845787
              CHANNELS 3 Zrotation Yrotation Xrotation
              JOINT LeftHand
              {
                OFFSET 0 0 26.247051
                CHANNELS 3 Zrotation Yrotation Xrotation
              }
            }
          }
        }
        JOINT RightShoulder
        {
          OFFSET -7.865169 1.474719 9.831461
          CHANNELS 3 Zrotation Yrotation Xrotation
          JOINT RightArm
          {
            OFFSET -9.536517 0 4.424157
            CHANNELS 3 Zrotation Yrotation Xrotation
            JOINT RightForearm
            {
              OFFSET 0 0 -26.845787
              CHANNELS 3 Zrotation Yrotation Xrotation
              JOINT RightHand
              {
                OFFSET 0 0 -26.247051
                CHANNELS 3 Zrotation Yrotation Xrotation
              }
            }
          }
        }
        JOINT Neck
        {
          OFFSET 0 0 15.730337
          CHANNELS 3 Zrotation Yrotation Xrotation
          JOINT Head
          {
            OFFSET 0 0 11.797753
            CHANNELS 3 Zrotation Yrotation Xrotation
            End Site
            {
              OFFSET 0 0 7.747191
            }
          }
        }
      }
    }
  }
}
MOTION
Frames: 12
Frame Time: 0.01
-82.668419  62.6398356718963  64.6005488185324  -176.34658  -77.119312  72.810339  14.774262  -57.186154  -39.865728  36.147949  23.906708  91.041399  -7.554129  8.520087  -24.726953  -46.033069  32.21759  -48.573133  -3.079643  -3.494805  81.456827  35.799121  -6.029997  -29.469548  -1.035968  -0.152622  -0.694005  -2.827106  -0.446772  -1.890084  -2.827105  -0.446772  -1.890084  -5.79539  9.961773  14.09249  164.133851  45.631501  -140.70279  -59.856683  25.496204  89.711773  10.581889  28.862426  -14.130289  30.034935  -24.096796  10.790318  -59.941678  52.282696  -62.045699  -42.509821  -61.774413  -67.603894  115.068018  -25.789339  -7.77709  -6.39428  -2.664139  8.66713  -4.758178  -2.089545  6.472134  
-82.630745  62.6346476718963  64.6155178185324  -176.437589  -77.003034  72.931151  14.645159  -57.133283  -39.74159  36.12691  23.775357  91.016009  -7.494084  8.581359  -24.770635  -45.842434  32.197109  -48.593765  -3.149856  -3.38968  81.47709  35.913666  -6.028626  -29.48751  -1.014996  -0.169398  -0.693412  -2.769317  -0.49199  -1.88791  -2.769317  -0.49199  -1.887911  -5.766083  10.002797  14.076196  164.161931  45.677189  -140.840097  -60.173959  25.455329  89.566519  10.571043  29.228497  -14.18622  30.003258  -24.051628  10.875023  -59.784457  52.388905  -61.959482  -42.63028  -61.566689  -67.587608  115.216795  -25.7751  -7.818345  -6.29658  -2.661112  8.619883  -4.685137  -2.085387  6.437134  
-82.685638  62.6651656718963  64.6365528185324  -176.508097  -76.91192  73.005824  14.498354  -57.098356  -39.574109  36.088322  23.7536  90.974557  -7.398304  8.63688  -24.811166  -45.819903  32.178518  -48.574193  -3.104801  -3.380802  81.389946  35.97742  -6.073105  -29.468951  -1.014771  -0.179441  -0.688436  -2.768461  -0.519219  -1.873897  -2.768461  -0.519219  -1.873897  -5.722828  10.023658  14.072853  164.203067  45.705658  -140.904891  -60.371942  25.454398  89.475705  10.702852  29.446714  -14.306992  30.008157  -24.021119  10.931141  -59.642863  52.42761  -61.821549  -42.598039  -61.440386  -67.609121  115.38004  -25.743779  -7.822388  -6.31672  -2.671181  8.598962  -4.70018  -2.093009  6.421249  
-82.649895  62.6858036718963  64.7562808185324  -176.612839  -76.7841  73.16705  14.441354  -57.049272  -39.520667  36.089919  23.628377  90.968855  -7.371586  8.676351  -24.850242  -45.669022  32.108673  -48.639423  -3.049109  -3.496643  81.258492  35.853816  -6.219721  -29.377767  -0.999074  -0.194507  -0.685248  -2.725167  -0.559816  -1.864696  -2.725167  -0.559816  -1.864696  -5.665875  10.055697  13.995354  164.193454  45.722049  -141.044927  -60.581462  25.494683  89.341268  10.804527  29.723401  -14.411109  29.945356  -23.966005  10.963114  -59.382718  52.531028  -61.715207  -42.839164  -61.216503  -67.416408  115.51995  -25.677107  -7.718382  -6.161773  -2.672904  8.533785  -4.584207  -2.091443  6.372988  
-82.715561  62.7235226718963  64.7873778185324  -176.64933  -76.714999  73.25478  14.369323  -57.002929  -39.456776  36.03915  23.616407  90.935008  -7.2805  8.734181  -24.903619  -45.72729  32.029259  -48.666246  -2.951741  -3.507736  81.143397  35.904993  -6.289322  -29.341098  -1.005135  -0.206069  -0.682589  -2.741435  -0.59147  -1.8569  -2.741435  -0.59147  -1.8569  -5.602799  10.100263  13.950217  164.241867  45.748053  -141.096385  -60.73482  25.509992  89.25715  10.959136  29.950347  -14.614666  29.932145  -23.933447  11.001226  -59.236036  52.56008  -61.612998  -42.966689  -61.147018  -67.247618  115.657752  -25.604298  -7.532077  -6.196636  -2.672552  8.494249  -4.610524  -2.091263  6.343197  
-82.713234  62.7623566718963  64.8632518185324  -176.637422  -76.63345  73.385005  14.407233  -56.94833  -39.56661  36.043371  23.53544  90.933751  -7.193535  8.769933  -24.947387  -45.720415  31.897152  -48.766144  -2.908989  -3.666166  81.00605  35.77558  -6.384037  -29.249067  -1.000036  -0.226276  -0.691884  -2.726848  -0.646927  -1.881524  -2.726848  -0.646927  -1.881524  -5.45647  10.161228  13.859883  164.189811  45.807651  -141.276883  -60.738266  25.693762  89.14611  11.269377  30.109442  -14.774713  29.90496  -23.897664  11.047805  -59.107639  52.618506  -61.579769  -43.325267  -61.032698  -66.881907  115.881011  -25.500234  -7.346754  -6.0758  -2.664093  8.420313  -4.52032  -2.082483  6.288339  
-82.77813  62.7908526718963  64.8916948185324  -176.607293  -76.566421  73.461015  14.403597  -56.880764  -39.600453  35.984472  23.536912  90.89264  -7.06717  8.821929  -24.993519  -45.73932  31.804508  -48.804814  -2.858374  -3.675845  80.909948  35.808876  -6.453321  -29.219117  -1.011418  -0.245138  -0.696381  -2.757382  -0.698979  -1.89292  -2.757382  -0.698979  -1.89292  -5.359908  10.241264  13.816337  164.311749  45.883108  -141.319371  -60.847671  25.682233  89.045189  11.528265  30.401669  -15.008007  29.880662  -23.877291  11.115417  -59.04771  52.64614  -61.562627  -43.542349  -60.998968  -66.581512  116.200594  -25.39423  -7.197225  -6.099979  -2.636028  8.379101  -4.539028  -2.061347  6.257637  
-82.765724  62.8069506718963  64.9297268185324  -176.603243  -76.443721  73.600259  14.481719  -56.806625  -39.733718  35.958265  23.467587  90.889276  -6.945379  8.865244  -25.038217  -45.599844  31.706802  -48.877998  -2.903747  -3.750242  80.850998  35.712464  -6.545509  -29.164462  -1.00192  -0.272455  -0.708625  -2.730509  -0.77386  -1.925368  -2.730509  -0.77386  -1.925367  -5.179924  10.32404  13.762279  164.299612  45.984326  -141.456938  -60.896784  25.718307  88.867482  11.875381  30.699528  -15.179941  29.847257  -23.841822  11.215466  -58.975167  52.724199  -61.560483  -43.867804  -60.824253  -66.262972  116.528946  -25.270772  -7.035529  -5.990383  -2.598209  8.31029  -4.457646  -2.03078  6.206881  
-82.817879  62.8287096718963  64.9575668185324  -176.586704  -76.361566  73.661136  14.438386  -56.749849  -39.727458  35.898515  23.474439  90.859651  -6.795664  8.926818  -25.07307  -45.551476  31.657832  -48.886578  -2.891318  -3.779724  80.772982  35.709389  -6.598807  -29.145642  -1.009815  -0.294235  -0.710801  -2.751441  -0.833695  -1.930324  -2.751441  -0.833695  -1.930323  -5.087536  10.383101  13.759517  164.475847  46.090724  -141.452055  -61.083015  25.600885  88.646003  12.141339  31.097355  -15.427266  29.78202  -23.821912  11.340293  -58.947811  52.742359  -61.558608  -43.948919  -60.721285  -66.122369  116.842194  -25.156771  -6.821567  -5.992161  -2.559897  8.263861  -4.459708  -2.001601  6.172461  
-82.819321  62.8485766718963  65.0442668185324  -176.691927  -76.189025  73.887972  14.511099  -56.684135  -39.798692  35.884774  23.372958  90.846655  -6.692164  8.982422  -25.083008  -45.34  31.598931  -48.95508  -2.911396  -3.912552  80.66432  35.540842  -6.724781  -29.072456  -0.989523  -0.320084  -0.722379  -2.695079  -0.904211  -1.961188  -2.695079  -0.904211  -1.961188  -4.926788  10.422559  13.759718  164.545451  46.202631  -141.552375  -61.268265  25.636612  88.356675  12.486237  31.51584  -15.612932  29.736366  -23.802369  11.499761  -58.937169  52.782586  -61.593473  -44.211882  -60.543321  -65.89281  117.100226  -24.984927  -6.502039  -5.862904  -2.524827  8.201686  -4.363498  -1.972929  6.126709  
-82.859047  62.8599286718963  65.0855498185324  -176.730281  -76.103069  73.984535  14.40368  -56.633807  -39.730254  35.856031  23.388278  90.818977  -6.517655  9.037092  -25.081913  -45.257751  31.588469  -48.970852  -2.917072  -3.963152  80.599041  35.501729  -6.775462  -29.050778  -0.993461  -0.340182  -0.725479  -2.705216  -0.959375  -1.968793  -2.705216  -0.959375  -1.968793  -4.854045  10.455144  13.811906  164.710198  46.303734  -141.514901  -61.59195  25.561195  87.989136  12.929225  31.967412  -15.724296  29.629981  -23.802726  11.676586  -58.905022  52.820091  -61.61572  -44.445691  -60.471165  -65.637476  117.483958  -24.806504  -6.265565  -5.856228  -2.493903  8.161749  -4.359077  -1.949253  6.097104  
-82.893517  62.9001126718963  65.1995098185324  -176.931905  -75.93447  74.283129  14.410086  -56.575264  -39.746781  35.882959  23.34771  90.83729  -6.346027  9.089794  -25.076182  -45.125162  31.548243  -49.048985  -2.865734  -4.1863  80.425302  35.325107  -6.886623  -28.979185  -0.979945  -0.364367  -0.729411  -2.667508  -1.025221  -1.97878  -2.667508  -1.025221  -1.97878  -4.683559  10.492337  13.794914  164.725178  46.380143  -141.605055  -61.912615  25.581834  87.566877  13.550247  32.421245  -15.645551  29.584102  -23.779682  11.816906  -58.84039  52.928425  -61.650008  -44.889758  -60.279056  -65.241053  117.927925  -24.607319  -6.091907  -5.632457  -2.458349  8.072137  -4.192076  -1.918739  6.031119  
